<svg xmlns="http://www.w3.org/2000/svg" viewBox="0 0 1400 900">
  <defs>
    <linearGradient id="bg" x1="0" y1="0" x2="1" y2="1">
      <stop offset="0" stop-color="#0f172a"/><stop offset="0.45" stop-color="#1e293b"/><stop offset="1" stop-color="#0b1120"/>
    </linearGradient>
    <linearGradient id="accent" x1="0" y1="0" x2="1" y2="1">
      <stop offset="0" stop-color="#7dd3fc"/><stop offset="1" stop-color="#38bdf8"/>
    </linearGradient>
    <filter id="glow" x="-30%" y="-30%" width="160%" height="160%">
      <feGaussianBlur stdDeviation="10" result="blur"/><feColorMatrix in="blur" type="matrix" values="0 0 0 0 0.2 0 0 0 0 0.7 0 0 0 0 1 0 0 0 0.8 0"/><feMerge><feMergeNode/><feMergeNode in="SourceGraphic"/></feMerge>
    </filter>
  </defs>
  <rect width="1400" height="900" rx="48" fill="url(#bg)"/>
  <circle cx="1130" cy="160" r="260" fill="#0ea5e9" opacity="0.12"/>
  <circle cx="230" cy="760" r="300" fill="#22d3ee" opacity="0.08"/>
  <g transform="translate(240,190)">
    <rect x="210" y="80" width="390" height="620" rx="110" fill="#d1d5db" opacity="0.92"/>
    <rect x="245" y="130" width="320" height="550" rx="90" fill="#111827" opacity="0.9"/>
    <rect x="310" y="195" width="190" height="280" rx="38" fill="url(#accent)" opacity="0.25"/>
    <path d="M395 225 C345 280 345 355 395 410 C445 355 445 280 395 225Z" fill="none" stroke="#7dd3fc" stroke-width="16" opacity="0.9"/>
    <circle cx="395" cy="535" r="42" fill="url(#accent)" filter="url(#glow)"/>
    <rect x="140" y="445" width="95" height="190" rx="32" fill="#94a3b8"/>
    <rect x="575" y="445" width="95" height="190" rx="32" fill="#94a3b8"/>
    <path d="M65 260 C155 175 230 170 310 250" fill="none" stroke="#38bdf8" stroke-width="12" stroke-linecap="round" opacity="0.9"/>
    <path d="M70 610 C160 700 240 705 325 615" fill="none" stroke="#38bdf8" stroke-width="12" stroke-linecap="round" opacity="0.75"/>
    <path d="M740 260 C650 175 575 170 495 250" fill="none" stroke="#38bdf8" stroke-width="12" stroke-linecap="round" opacity="0.9"/>
    <path d="M735 610 C645 700 565 705 480 615" fill="none" stroke="#38bdf8" stroke-width="12" stroke-linecap="round" opacity="0.75"/>
  </g>
  <g transform="translate(845,290)">
    <text x="0" y="0" fill="#e5e7eb" font-family="Arial, Helvetica, sans-serif" font-size="72" font-weight="700">GripWell</text>
    <text x="0" y="68" fill="#bae6fd" font-family="Arial, Helvetica, sans-serif" font-size="28" letter-spacing="4">TREMOR STABILIZATION</text>
    <rect x="0" y="116" width="360" height="2" fill="#38bdf8" opacity="0.8"/>
    <text x="0" y="178" fill="#cbd5e1" font-family="Arial, Helvetica, sans-serif" font-size="30">Arduino + IMU + Servos</text>
    <text x="0" y="230" fill="#94a3b8" font-family="Arial, Helvetica, sans-serif" font-size="26">Rapid 3-day assistive device prototype</text>
  </g>
</svg>